<svg width="1920" height="268" viewBox="0 0 1920 268" fill="none" xmlns="http://www.w3.org/2000/svg">
<path d="M600.69 188.771L580.112 193.769V23.5586H653.605V244.038H558.652L449.294 74.1219L469.872 69.1244V244.038H396.379V23.5586H494.272L600.69 188.771Z" fill="white"/>
<path d="M697.736 23.5586H773.581V244.038H697.736V23.5586Z" fill="white"/>
<path d="M1157.19 23.5586V244.038H1085.17V52.074L1098.99 53.8378L1024.91 244.038H949.944L875.862 54.7197L889.679 52.6619V244.038H817.656V23.5586H934.951L1000.8 203.176H974.637L1039.9 23.5586H1157.19Z" fill="white"/>
<path d="M1361.33 137.032L1367.21 123.509C1383.86 124.097 1397.78 126.743 1408.95 131.447C1420.12 136.15 1428.45 142.716 1433.94 151.143C1439.62 159.374 1442.46 169.271 1442.46 180.834C1442.46 192.789 1439.72 203.568 1434.23 213.171C1428.94 222.774 1420.81 230.32 1409.83 235.807C1398.86 241.295 1385.14 244.038 1368.68 244.038H1195.53L1212.28 130.859L1195.53 23.5586H1362.5C1382.88 23.5586 1398.86 28.3602 1410.42 37.9633C1421.98 47.3704 1427.76 60.5012 1427.76 77.3556C1427.76 86.9588 1425.61 95.9739 1421.3 104.401C1416.99 112.828 1409.93 119.982 1400.13 125.861C1390.53 131.545 1377.59 135.268 1361.33 137.032ZM1269.61 227.576L1240.8 193.769H1344.57C1351.04 193.769 1356.13 192.103 1359.86 188.771C1363.58 185.244 1365.44 180.54 1365.44 174.661C1365.44 169.369 1363.58 164.862 1359.86 161.138C1356.33 157.414 1351.04 155.552 1343.98 155.552H1256.97V106.165H1332.81C1337.91 106.165 1342.12 104.597 1345.45 101.461C1348.98 98.3257 1350.74 94.3081 1350.74 89.4085C1350.74 84.901 1349.18 81.1773 1346.04 78.2376C1342.9 75.2978 1338.49 73.828 1332.81 73.828H1241.09L1269.61 40.0211L1284.6 130.859L1269.61 227.576Z" fill="white"/>
<path d="M1552.77 23.5586V210.525L1518.67 176.425H1682.71V244.038H1476.92V23.5586H1552.77Z" fill="white"/>
<path d="M1912.08 107.635V159.962H1745.98V107.635H1912.08ZM1798.02 133.798L1784.49 215.817L1755.68 184.068H1922.95V244.038H1709.53L1725.7 133.798L1709.53 23.5586H1921.49V83.5291H1755.68L1784.49 51.78L1798.02 133.798Z" fill="white"/>
<path d="M313.261 106.449V267.136L132.261 128.421V267.159L-3 160.503V0L178.047 139.314V0L313.261 106.449ZM16.2266 102.155L64.7461 140.408V188.314L113.111 226.454V168.14L65.5361 131.506V81.5879L16.2266 43.6562V102.155ZM197.203 102.155L245.723 140.408V188.314L294.088 226.454V168.14L246.513 131.506V81.5879L197.203 43.6562V102.155Z" fill="white"/>
</svg>
