<?xml version="1.0" encoding="utf-8"?>
<!-- Generator: Adobe Illustrator 25.2.0, SVG Export Plug-In . SVG Version: 6.00 Build 0)  -->
<svg version="1.1" id="Layer_1" xmlns="http://www.w3.org/2000/svg" xmlns:xlink="http://www.w3.org/1999/xlink" x="0px" y="0px"
	 viewBox="0 0 392 86" style="enable-background:new 0 0 392 86;" xml:space="preserve">
<path d="M117.3,64.6h15.9v4.1h-11.3V73h9.9v4.1h-9.9v4.4h11.4v4.1h-16V64.6z"/>
<path d="M133.2,64.6v4.1h-11.3V73h9.9v4.1h-9.9v4.4h11.4v4.1h-16V64.6H133.2"/>
<path d="M143.1,76.6v-12h4.6v11.9c0,3.4,1.7,5.2,4.5,5.2s4.5-1.7,4.5-5.1V64.6h4.6v11.9c0,6.4-3.6,9.5-9.2,9.5
	C146.6,86,143.1,82.8,143.1,76.6z"/>
<path d="M161.5,64.6v11.9c0,6.4-3.6,9.5-9.2,9.5c-5.7,0-9.1-3.2-9.1-9.4v-12h4.6v11.9c0,3.4,1.7,5.2,4.5,5.2c2.8,0,4.5-1.7,4.5-5.1
	V64.6H161.5"/>
<path d="M172.2,64.6h9.6c2.7,0,4.8,0.8,6.1,2.1c1.2,1.2,1.8,2.8,1.8,4.8v0.1c0,3.4-1.8,5.5-4.5,6.5l5.1,7.5H185l-4.5-6.7h-3.6v6.7
	h-4.6V64.6z M181.6,74.8c2.3,0,3.6-1.2,3.6-3v-0.1c0-2-1.4-3-3.6-3h-4.6v6.1H181.6z"/>
<path d="M181.9,64.6c2.7,0,4.8,0.8,6.1,2.1c1.2,1.2,1.8,2.8,1.8,4.8v0.1c0,3.4-1.8,5.5-4.5,6.5l5.1,7.5H185l-4.5-6.7h-3.6v6.7h-4.6
	V64.6H181.9 M176.9,74.8h4.7c2.3,0,3.6-1.2,3.6-3v-0.1c0-2-1.4-3-3.6-3h-4.6V74.8"/>
<path d="M199.1,75.2L199.1,75.2c0-6.1,4.7-11,11.2-11c6.5,0,11.2,4.8,11.2,10.8v0.1c0,6-4.7,10.9-11.2,10.9
	C203.8,86,199.1,81.2,199.1,75.2z M216.7,75.2L216.7,75.2c0-3.7-2.6-6.7-6.4-6.7c-3.7,0-6.3,3-6.3,6.6v0.1c0,3.6,2.6,6.6,6.4,6.6
	C214.1,81.7,216.7,78.8,216.7,75.2z"/>
<path d="M210.3,64.2c6.5,0,11.2,4.8,11.2,10.8v0.1c0,6-4.7,10.9-11.2,10.9c-6.5,0-11.2-4.8-11.2-10.8v-0.1
	C199.1,69.1,203.8,64.2,210.3,64.2 M210.3,81.7c3.7,0,6.3-3,6.3-6.6v-0.1c0-3.6-2.6-6.6-6.4-6.6c-3.7,0-6.3,3-6.3,6.6v0.1
	C203.9,78.7,206.6,81.7,210.3,81.7"/>
<path d="M231.6,64.6h8.6c5,0,8.1,3,8.1,7.3v0.1c0,4.9-3.8,7.4-8.5,7.4h-3.5v6.3h-4.6V64.6z M239.9,75.2c2.3,0,3.7-1.4,3.7-3.2v-0.1
	c0-2.1-1.4-3.2-3.8-3.2h-3.6v6.4H239.9z"/>
<path d="M240.2,64.6c5,0,8.1,3,8.1,7.3v0.1c0,4.9-3.8,7.4-8.5,7.4h-3.5v6.3h-4.6V64.6H240.2 M236.3,75.2h3.7c2.3,0,3.7-1.4,3.7-3.2
	v-0.1c0-2.1-1.4-3.2-3.8-3.2h-3.6V75.2"/>
<path d="M257.8,64.6h15.9v4.1h-11.3V73h9.9v4.1h-9.9v4.4h11.4v4.1h-16V64.6z"/>
<path d="M273.7,64.6v4.1h-11.3V73h9.9v4.1h-9.9v4.4h11.4v4.1h-16V64.6H273.7"/>
<path d="M0.2,40.3l6-7.2c4.2,3.4,8.5,5.6,13.8,5.6c4.2,0,6.7-1.7,6.7-4.4v-0.1c0-2.6-1.6-3.9-9.3-5.9C8.1,26,2,23.4,2,14.2v-0.1
	c0-8.4,6.7-14,16.2-14C25,0.1,30.7,2.2,35.4,6l-5.3,7.7c-4.1-2.8-8.1-4.6-12-4.6c-3.9,0-6,1.8-6,4v0.1c0,3,2,4,10,6.1
	c9.4,2.4,14.7,5.8,14.7,13.9v0.1c0,9.2-7,14.4-17,14.4C12.8,47.8,5.7,45.3,0.2,40.3"/>
<g>
	<polygon points="220.4,10.2 206.3,10.2 206.3,0.8 244.7,0.8 244.7,10.2 230.6,10.2 230.6,47.1 220.4,47.1 220.4,10.2 	"/>
</g>
<g>
	<polygon points="305.4,0.8 315.6,0.8 315.6,37.8 338.7,37.8 338.7,47.1 305.4,47.1 305.4,0.8 	"/>
</g>
<polygon points="49,0.8 59.2,0.8 59.2,19.1 78,19.1 78,0.8 88.2,0.8 88.2,47.1 78,47.1 78,28.5 59.2,28.5 59.2,47.1 49,47.1 49,0.8 
	"/>
<path d="M100.5,24.1v-0.1c0-13.2,10.4-23.9,24.7-23.9c14.3,0,24.5,10.7,24.5,23.8v0.1c0,13.2-10.4,23.9-24.7,23.9
	C110.8,47.9,100.5,37.2,100.5,24.1 M139.1,24.1v-0.1c0-7.9-5.8-14.6-14-14.6c-8.2,0-13.9,6.5-13.9,14.4v0.1c0,7.9,5.8,14.6,14,14.6
	C133.4,38.5,139.1,32,139.1,24.1"/>
<path d="M162.1,0.8h18.9c11,0,17.7,6.5,17.7,16v0.1c0,10.7-8.3,16.3-18.7,16.3h-7.7v13.9h-10.2V0.8L162.1,0.8z M180.4,24.1
	c5.1,0,8.1-3,8.1-7V17c0-4.6-3.2-7-8.3-7h-7.9v14.2H180.4L180.4,24.1z"/>
<polygon points="220.4,10.2 206.3,10.2 206.3,0.8 244.7,0.8 244.7,10.2 230.6,10.2 230.6,47.1 220.4,47.1 220.4,10.2 "/>
<polygon points="305.4,0.8 315.6,0.8 315.6,37.8 338.7,37.8 338.7,47.1 305.4,47.1 305.4,0.8 "/>
<polygon points="349.7,0.8 359.9,0.8 359.9,21 378.7,0.8 391,0.8 372.1,20.4 391.8,47.1 379.6,47.1 365.2,27.4 359.9,32.9 
	359.9,47.1 349.7,47.1 349.7,0.8 "/>
<polygon points="275.1,0.5 265.7,0.5 245.9,47.1 256.3,47.1 260.5,36.7 264.2,27.7 264.1,27.7 270.3,12.7 276.4,27.7 276.4,27.7 
	280.1,36.7 284.3,47.1 295,47.1 275.1,0.5 "/>
</svg>
